<svg id="Light" enable-background="new 0 0 24 24" height="512" viewBox="0 0 24 24" width="512" xmlns="http://www.w3.org/2000/svg"><path d="m11.342 11h-1.342c-.276 0-.5.224-.5.5s.224.5.5.5h1.5v1h-1.5c-.276 0-.5.224-.5.5s.224.5.5.5h1.5v2.5c0 .276.224.5.5.5s.5-.224.5-.5v-2.5h1.5c.276 0 .5-.224.5-.5s-.224-.5-.5-.5h-1.5v-1h1.5c.276 0 .5-.224.5-.5s-.224-.5-.5-.5h-1.342l2.721-3.175c.18-.209.156-.525-.054-.705-.208-.179-.524-.155-.705.055l-2.62 3.056-2.621-3.056c-.179-.21-.495-.232-.704-.055-.21.18-.235.496-.054.705z"/><path d="m12 23c6.065 0 11-4.935 11-11s-4.935-11-11-11-11 4.935-11 11 4.935 11 11 11zm0-21c5.514 0 10 4.486 10 10s-4.486 10-10 10-10-4.486-10-10 4.486-10 10-10z"/></svg>