<svg xmlns="http://www.w3.org/2000/svg" viewBox="0 0 128 128"><path d="M64 0a64 64 0 1064 64A64.073 64.073 0 0064 0zm43.968 105.49l-8.128-8.128a48.808 48.808 0 0013.116-31.615h11.5a60.261 60.261 0 01-16.488 39.743zM15.041 62.361a1.729 1.729 0 00-.6-.114H4.062a1.729 1.729 0 00-.52.088A60.262 60.262 0 0120.032 22.5l8.128 8.128a48.806 48.806 0 00-13.119 31.733zm82.324-34.2A48.8 48.8 0 0065.75 15.042V3.541a60.265 60.265 0 0139.743 16.488zM62.25 15.042a48.8 48.8 0 00-31.615 13.115l-8.128-8.128A60.261 60.261 0 0162.25 3.541zM64 18.5A45.5 45.5 0 1118.5 64 45.551 45.551 0 0164 18.5zm-33.608 81.58a1.768 1.768 0 00.218-.267 48.81 48.81 0 0031.64 13.14v11.5a60.259 60.259 0 01-39.758-16.5 1.681 1.681 0 00.162-.133zm35.358 12.873a48.8 48.8 0 0031.615-13.116l8.128 8.128a60.265 60.265 0 01-39.743 16.488zm58.706-50.706h-11.5A48.808 48.808 0 0099.84 30.632l8.128-8.128a60.265 60.265 0 0116.488 39.743zM3.542 65.659a1.729 1.729 0 00.52.088h10.375a1.729 1.729 0 00.6-.114 48.8 48.8 0 0013.147 31.754 1.768 1.768 0 00-.267.218l-7.737 7.738a1.578 1.578 0 00-.133.163A60.263 60.263 0 013.542 65.659z"/><path d="M38.862 53.893a1.749 1.749 0 00-.908 1.808l5 32.875a1.751 1.751 0 001.73 1.487h38.628a1.749 1.749 0 001.73-1.487l5-32.875a1.75 1.75 0 00-2.915-1.551L72.486 67.63l-6.942-13.016a1.75 1.75 0 00-3.088 0L55.514 67.63 40.869 54.15a1.745 1.745 0 00-2.007-.257zm15.947 17.844a1.749 1.749 0 002.729-.464L64 59.156l6.462 12.117a1.749 1.749 0 002.729.464L85.837 60.1l-4.028 26.463H46.191L42.163 60.1zM64 51.563a6.813 6.813 0 10-6.813-6.813A6.821 6.821 0 0064 51.563zm0-10.125a3.313 3.313 0 11-3.313 3.312A3.315 3.315 0 0164 41.438zm24.316 10.125A6.813 6.813 0 1081.5 44.75a6.821 6.821 0 006.816 6.813zm0-10.125A3.313 3.313 0 1185 44.75a3.316 3.316 0 013.316-3.312zM39.684 51.563a6.813 6.813 0 10-6.813-6.813 6.821 6.821 0 006.813 6.813zm0-10.125a3.313 3.313 0 11-3.313 3.312 3.315 3.315 0 013.313-3.312z"/></svg>