<?xml version="1.0"?>
<svg xmlns="http://www.w3.org/2000/svg" width="512" height="512" viewBox="0 0 128 128"><g><path d="M64,0a64,64,0,1,0,64,64A64.073,64.073,0,0,0,64,0ZM107.968,105.49,99.84,97.362a48.808,48.808,0,0,0,13.116-31.615h11.5A60.261,60.261,0,0,1,107.968,105.49ZM15.041,62.361a1.729,1.729,0,0,0-.6-.114H4.062a1.729,1.729,0,0,0-.52.088A60.262,60.262,0,0,1,20.032,22.5l8.128,8.128A48.806,48.806,0,0,0,15.041,62.361Zm82.324-34.2A48.8,48.8,0,0,0,65.75,15.042V3.541a60.265,60.265,0,0,1,39.743,16.488ZM62.25,15.042A48.8,48.8,0,0,0,30.635,28.157l-8.128-8.128A60.261,60.261,0,0,1,62.25,3.541ZM64,18.5A45.5,45.5,0,1,1,18.5,64,45.551,45.551,0,0,1,64,18.5ZM30.392,100.08a1.768,1.768,0,0,0,.218-.267,48.81,48.81,0,0,0,31.64,13.14v11.5a60.259,60.259,0,0,1-39.758-16.5,1.681,1.681,0,0,0,.162-.133ZM65.75,112.953A48.8,48.8,0,0,0,97.365,99.837l8.128,8.128A60.265,60.265,0,0,1,65.75,124.453Zm58.706-50.706h-11.5A48.808,48.808,0,0,0,99.84,30.632l8.128-8.128A60.265,60.265,0,0,1,124.456,62.247ZM3.542,65.659a1.729,1.729,0,0,0,.52.088H14.437a1.729,1.729,0,0,0,.6-.114A48.8,48.8,0,0,0,28.184,97.387a1.768,1.768,0,0,0-.267.218l-7.737,7.738a1.578,1.578,0,0,0-.133.163A60.263,60.263,0,0,1,3.542,65.659Z"/><path d="M38.862,53.893a1.749,1.749,0,0,0-.908,1.808l5,32.875a1.751,1.751,0,0,0,1.73,1.487H83.312a1.749,1.749,0,0,0,1.73-1.487l5-32.875a1.75,1.75,0,0,0-2.915-1.551L72.486,67.63,65.544,54.614a1.75,1.75,0,0,0-3.088,0L55.514,67.63,40.869,54.15A1.745,1.745,0,0,0,38.862,53.893ZM54.809,71.737a1.749,1.749,0,0,0,2.729-.464L64,59.156l6.462,12.117a1.749,1.749,0,0,0,2.729.464L85.837,60.1,81.809,86.563H46.191L42.163,60.1Z"/><path d="M64,51.563a6.813,6.813,0,1,0-6.813-6.813A6.821,6.821,0,0,0,64,51.563Zm0-10.125a3.313,3.313,0,1,1-3.313,3.312A3.315,3.315,0,0,1,64,41.438Z"/><path d="M88.316,51.563A6.813,6.813,0,1,0,81.5,44.75,6.821,6.821,0,0,0,88.316,51.563Zm0-10.125A3.313,3.313,0,1,1,85,44.75,3.316,3.316,0,0,1,88.316,41.438Z"/><path d="M39.684,51.563a6.813,6.813,0,1,0-6.813-6.813A6.821,6.821,0,0,0,39.684,51.563Zm0-10.125a3.313,3.313,0,1,1-3.313,3.312A3.315,3.315,0,0,1,39.684,41.438Z"/></g></svg>
