<svg viewBox="0 0 69.12 56.62" xmlns="http://www.w3.org/2000/svg"><g fill="#015eac"><path d="M15.37 0H51.2L11.76 56.62H4a1 1 0 01-1-1 1.07 1.07 0 01.14-.46l34-48.86a.29.29 0 00-.07-.4.27.27 0 00-.07-.09H22.93a13.21 13.21 0 00-4.93 1C13.36 8.68 4.88 14.37.33 31.25c0 0-3.88-17.13 15.04-31.25zM53.75 56.62H17.92L57.35 0h7.81a1 1 0 01.9 1.09.93.93 0 01-.12.4l-34 48.85a.3.3 0 00.08.42.28.28 0 00.16.05l14.07-.06a13.14 13.14 0 004.84-.93c4.67-1.89 13.16-7.57 17.71-24.45-.01 0 3.87 17.13-15.05 31.25z"/></g></svg>